<?xml version="1.0" encoding="UTF-8" standalone="no"?>
<svg
   width="467px"
   height="258px"
   viewBox="0 0 467 258"
   version="1.1"
   id="svg126"
   sodipodi:docname="apollo-diagram.svg"
   inkscape:version="1.1 (ce6663b3b7, 2021-05-25)"
   xmlns:inkscape="http://www.inkscape.org/namespaces/inkscape"
   xmlns:sodipodi="http://sodipodi.sourceforge.net/DTD/sodipodi-0.dtd"
   xmlns:xlink="http://www.w3.org/1999/xlink"
   xmlns="http://www.w3.org/2000/svg"
   xmlns:svg="http://www.w3.org/2000/svg">
  <sodipodi:namedview
     id="namedview128"
     pagecolor="#ffffff"
     bordercolor="#666666"
     borderopacity="1.0"
     inkscape:pageshadow="2"
     inkscape:pageopacity="0.0"
     inkscape:pagecheckerboard="0"
     showgrid="false"
     inkscape:zoom="2.8449612"
     inkscape:cx="239.54632"
     inkscape:cy="129"
     inkscape:window-width="1920"
     inkscape:window-height="1016"
     inkscape:window-x="0"
     inkscape:window-y="27"
     inkscape:window-maximized="1"
     inkscape:current-layer="Page-1" />
  <!-- Generator: Sketch 49.2 (51160) - http://www.bohemiancoding.com/sketch -->
  <title
     id="title2">server-arch-JM</title>
  <desc
     id="desc4">Created with Sketch.</desc>
  <defs
     id="defs17">
    <rect
       id="path-1"
       x="19"
       y="0"
       width="82"
       height="36"
       rx="18" />
    <rect
       id="path-2"
       x="197"
       y="0"
       width="82"
       height="36"
       rx="18" />
    <rect
       id="path-3"
       x="365"
       y="0"
       width="82"
       height="36"
       rx="18" />
    <rect
       id="path-4"
       x="164"
       y="222"
       width="147"
       height="36"
       rx="18" />
    <rect
       id="path-5"
       x="347"
       y="222"
       width="120"
       height="36"
       rx="18" />
    <rect
       id="path-6"
       x="0"
       y="222"
       width="120"
       height="36"
       rx="18" />
    <linearGradient
       x1="50%"
       y1="0%"
       x2="50%"
       y2="100%"
       id="linearGradient-7">
      <stop
         stop-color="#EB7ED3"
         offset="0%"
         id="stop12" />
      <stop
         stop-color="#D348A7"
         offset="100%"
         id="stop14" />
    </linearGradient>
    <linearGradient
       inkscape:collect="always"
       xlink:href="#linearGradient-7"
       id="linearGradient945"
       x1="12.727922"
       y1="0"
       x2="12.727922"
       y2="25.455844"
       gradientTransform="scale(0.94280904,1.0606602)"
       gradientUnits="userSpaceOnUse" />
    <linearGradient
       inkscape:collect="always"
       xlink:href="#linearGradient-7"
       id="linearGradient947"
       x1="12.727922"
       y1="0"
       x2="12.727922"
       y2="25.455844"
       gradientTransform="scale(0.94280904,1.0606602)"
       gradientUnits="userSpaceOnUse" />
    <linearGradient
       inkscape:collect="always"
       xlink:href="#linearGradient-7"
       id="linearGradient949"
       x1="12.727922"
       y1="0"
       x2="12.727922"
       y2="25.455844"
       gradientTransform="scale(0.94280904,1.0606602)"
       gradientUnits="userSpaceOnUse" />
  </defs>
  <g
     id="Page-1"
     stroke="none"
     stroke-width="1"
     fill="none"
     fill-rule="evenodd">
    <path
       d="M237.597598,34.131746 L237.597598,115.814286"
       id="Line-3"
       stroke="#E535AB"
       stroke-width="1.6" />
    <path
       d="M66,19 C204.984817,19 218.209352,76.2317759 237.271272,130.067676"
       id="Path-4-Copy-2"
       stroke="#E535AB"
       stroke-width="2" />
    <path
       d="M237,19 C373.738915,19 388.749113,74.3970658 407.351206,127.455415"
       id="Path-4-Copy"
       stroke="#E535AB"
       stroke-width="2"
       transform="translate(322.175603, 73.227708) scale(-1, 1) translate(-322.175603, -73.227708) " />
    <circle
       id="Oval"
       fill="#FFFFFF"
       cx="309.5"
       cy="36.5"
       r="17.5" />
    <circle
       id="circle23"
       fill="#FFFFFF"
       cx="165.5"
       cy="36.5"
       r="17.5" />
    <circle
       id="Oval-Copy"
       fill="#FFFFFF"
       cx="237.5"
       cy="62.5"
       r="17.5" />
    <path
       d="M245.271272,130.067676 C262.197801,177.872664 283.727116,223 402,223"
       id="Path-4"
       stroke="#14CBC4"
       stroke-width="2" />
    <path
       d="M74,127.22287 C91.1128158,176.066412 111.113658,223 231.730295,223"
       id="path27"
       stroke="#14CBC4"
       stroke-width="2"
       transform="translate(152.865148, 175.111435) scale(-1, 1) translate(-152.865148, -175.111435) " />
    <path
       d="M237.597598,124.495865 L237.597598,222.964153"
       id="path29"
       stroke="#14CBC4"
       stroke-width="1.6" />
    <circle
       id="Oval-5-Copy-19"
       stroke="#14CBC4"
       stroke-width="1.6"
       fill="#FFFFFF"
       cx="184.5"
       cy="198.5"
       r="6.5" />
    <circle
       id="Oval-5-Copy-20"
       stroke="#14CBC4"
       stroke-width="1.6"
       fill="#FFFFFF"
       cx="291.5"
       cy="198.5"
       r="6.5" />
    <circle
       id="Oval-5-Copy-18"
       stroke="#14CBC4"
       stroke-width="1.6"
       fill="#FFFFFF"
       cx="237.5"
       cy="192.5"
       r="6.5" />
    <g
       id="Rectangle-12-Copy-5">
      <use
         fill="#FFFFFF"
         fill-rule="evenodd"
         xlink:href="#path-1"
         id="use34" />
      <rect
         stroke="#14CBC4"
         stroke-width="1.6"
         x="19.8"
         y="0.8"
         width="80.4"
         height="34.4"
         rx="17.2"
         id="rect36" />
    </g>
    <text
       id="Browser"
       font-family="Helvetica"
       font-size="11.2"
       font-weight="normal"
       letter-spacing="0.4"
       fill="#343C5A"><tspan
         x="47.3226941"
         y="21.3333333"
         id="tspan39">Web</tspan></text>
    <g
       id="g46">
      <use
         fill="#FFFFFF"
         fill-rule="evenodd"
         xlink:href="#path-2"
         id="use42" />
      <rect
         stroke="#14CBC4"
         stroke-width="1.6"
         x="197.8"
         y="0.8"
         width="80.4"
         height="34.4"
         rx="17.2"
         id="rect44" />
    </g>
    <text
       id="text50"
       font-family="Helvetica"
       font-size="11.2"
       font-weight="normal"
       letter-spacing="0.4"
       fill="#343C5A"><tspan
         x="228.500328"
         y="21"
         id="tspan48">iOS</tspan></text>
    <g
       id="g56">
      <use
         fill="#FFFFFF"
         fill-rule="evenodd"
         xlink:href="#path-3"
         id="use52" />
      <rect
         stroke="#14CBC4"
         stroke-width="1.6"
         x="365.8"
         y="0.8"
         width="80.4"
         height="34.4"
         rx="17.2"
         id="rect54" />
    </g>
    <text
       id="text60"
       font-family="Helvetica"
       font-size="11.2"
       font-weight="normal"
       letter-spacing="0.4"
       fill="#343C5A"><tspan
         x="384.636757"
         y="21.3333333"
         id="tspan58">Android</tspan></text>
    <g
       id="g66">
      <use
         fill="#FFFFFF"
         fill-rule="evenodd"
         xlink:href="#path-4"
         id="use62" />
      <rect
         stroke="#14CBC4"
         stroke-width="1.6"
         x="164.8"
         y="222.8"
         width="145.4"
         height="34.4"
         rx="17.2"
         id="rect64" />
    </g>
    <text
       id="Microservice"
       font-family="Helvetica"
       font-size="11.2"
       font-weight="normal"
       letter-spacing="0.4"
       fill="#343C5A"><tspan
         x="204.149635"
         y="244"
         id="tspan68">Microservice</tspan></text>
    <g
       id="g75">
      <use
         fill="#FFFFFF"
         fill-rule="evenodd"
         xlink:href="#path-5"
         id="use71" />
      <rect
         stroke="#14CBC4"
         stroke-width="1.6"
         x="347.8"
         y="222.8"
         width="118.4"
         height="34.4"
         rx="17.2"
         id="rect73" />
    </g>
    <text
       id="Database"
       font-family="Helvetica"
       font-size="11.2"
       font-weight="normal"
       letter-spacing="0.4"
       fill="#343C5A"><tspan
         x="380.040638"
         y="244"
         id="tspan77">Database</tspan></text>
    <g
       id="g84">
      <use
         fill="#FFFFFF"
         fill-rule="evenodd"
         xlink:href="#path-6"
         id="use80" />
      <rect
         stroke="#14CBC4"
         stroke-width="1.6"
         x="0.8"
         y="222.8"
         width="118.4"
         height="34.4"
         rx="17.2"
         id="rect82" />
    </g>
    <text
       id="REST-API"
       font-family="Helvetica"
       font-size="11.2"
       font-weight="normal"
       letter-spacing="0.4"
       fill="#343C5A"><tspan
         x="31.9004032"
         y="244"
         id="tspan86">REST API</tspan></text>
    <g
       id="Group-2"
       transform="translate(225.000000, 49.000000)"
       fill="url(#linearGradient-7)"
       fill-rule="nonzero">
      <g
         id="graphql_logo">
        <path
           d="M22.8014328,16.979628 C22.5919222,16.8600531 22.3824117,16.7883082 22.1729011,16.7165633 L22.1729011,10.3073516 C22.3824117,10.2595217 22.6152012,10.1638618 22.8014328,10.044287 C23.9421013,9.37466785 24.3378435,7.91585474 23.6860329,6.76793623 C23.0109433,5.62001771 21.5443695,5.21346324 20.4037009,5.88308237 C20.1941904,6.00265722 20.0079588,6.14614703 19.8682851,6.31355182 L14.304616,3.10894597 C14.3744529,2.89371125 14.3977318,2.65456156 14.3977318,2.43932684 C14.3977318,1.10008857 13.3269001,0 12,0 C10.6730999,0 9.60226816,1.0761736 9.60226816,2.41541187 C9.60226816,2.65456156 9.62554711,2.86979628 9.69538396,3.10894597 L4.13171493,6.31355182 C3.96876228,6.14614703 3.80580963,6.00265722 3.59629908,5.88308237 C2.45563054,5.21346324 0.965777741,5.62001771 0.313967144,6.76793623 C-0.337843454,7.91585474 0.0578986945,9.37466785 1.19856724,10.044287 C1.40807779,10.1638618 1.61758834,10.2356067 1.82709889,10.3073516 L1.82709889,16.7165633 C1.61758834,16.7643933 1.38479884,16.8600531 1.19856724,16.979628 C0.0578986945,17.6492471 -0.337843454,19.1080602 0.313967144,20.2559787 C0.989056691,21.4038973 2.45563054,21.8104517 3.59629908,21.1408326 C3.80580963,21.0212578 3.99204123,20.8777679 4.13171493,20.7103632 L9.69538396,23.914969 C9.62554711,24.1302037 9.60226816,24.3693534 9.60226816,24.5845881 C9.60226816,25.9238264 10.6730999,27 12,27 C13.3269001,27 14.3977318,25.9238264 14.3977318,24.5845881 C14.3977318,24.3215235 14.3511739,24.0584588 14.2813371,23.8193091 L19.7984482,20.6386182 C19.9614009,20.829938 20.1709114,20.9973428 20.380422,21.1169176 C21.5210905,21.7865368 23.0109433,21.3799823 23.6627539,20.2320638 C24.3378435,19.1080602 23.9421013,17.6492471 22.8014328,16.979628 Z M4.73696763,18.486271 C4.69040973,18.2710363 4.59729393,18.0558016 4.48089918,17.8405669 C4.36450443,17.6492471 4.22483073,17.4579274 4.06187808,17.3144376 L11.3249105,4.71124889 C11.534421,4.7829938 11.7672105,4.83082374 12,4.83082374 C12.2327895,4.83082374 12.465579,4.80690877 12.6750895,4.73516386 L19.9381219,17.3383525 C19.7751693,17.4818423 19.6354956,17.6731621 19.5191008,17.8644818 C19.4027061,18.0797166 19.3095903,18.2710363 19.2630324,18.510186 L4.73696763,18.510186 L4.73696763,18.486271 Z M19.2863113,7.29406554 C19.1233587,7.89193977 19.1699166,8.5615589 19.5191008,9.15943313 C19.8682851,9.75730735 20.4037009,10.1399469 21.0089536,10.2834367 L21.0089536,16.7165633 C20.9856747,16.7165633 20.9391168,16.7404783 20.9158378,16.7404783 L13.6528054,4.16120461 C13.6760844,4.13728964 13.6993633,4.11337467 13.7226423,4.0894597 L19.2863113,7.29406554 Z M10.2773577,4.0894597 C10.3006367,4.11337467 10.3239156,4.13728964 10.3471946,4.16120461 L3.06088323,16.7404783 C3.03760428,16.7404783 2.99104638,16.7165633 2.96776743,16.7165633 L2.96776743,10.3073516 C3.57302013,10.1638618 4.13171493,9.75730735 4.45762023,9.1833481 C4.80680448,8.58547387 4.85336238,7.91585474 4.69040973,7.31798051 L10.2773577,4.0894597 Z M13.7924791,22.9822852 C13.3501791,22.5039858 12.7216474,22.1930912 12,22.1930912 C11.3249105,22.1930912 10.7196578,22.4800709 10.2773577,22.9344553 L4.71368868,19.7298494 C4.71368868,19.7059345 4.73696763,19.6820195 4.73696763,19.6581045 L19.2630324,19.6581045 C19.2863113,19.7059345 19.2863113,19.7537644 19.3095903,19.8255093 L13.7924791,22.9822852 Z"
           id="logo" />
      </g>
    </g>
    <g
       id="g96"
       transform="translate(153.4645,23.037425)"
       fill="url(#linearGradient-7)"
       fill-rule="nonzero"
       style="fill:url(#linearGradient949)">
      <g
         id="g94"
         style="fill:url(#linearGradient947)">
        <path
           d="m 22.801433,16.979628 c -0.209511,-0.119575 -0.419021,-0.19132 -0.628532,-0.263065 v -6.409211 c 0.209511,-0.04783 0.4423,-0.14349 0.628532,-0.263065 1.140668,-0.6696191 1.536411,-2.1284323 0.8846,-3.2763508 C 23.010943,5.6200177 21.544369,5.2134632 20.403701,5.8830824 20.19419,6.0026572 20.007959,6.146147 19.868285,6.3135518 L 14.304616,3.108946 c 0.06984,-0.2152347 0.09312,-0.4543844 0.09312,-0.6696192 C 14.397732,1.1000886 13.3269,0 12,0 10.6731,0 9.6022682,1.0761736 9.6022682,2.4154119 c 0,0.2391497 0.023279,0.4543844 0.093116,0.6935341 L 4.1317149,6.3135518 C 3.9687623,6.146147 3.8058096,6.0026572 3.5962991,5.8830824 2.4556305,5.2134632 0.96577774,5.6200177 0.31396714,6.7679362 -0.33784345,7.9158547 0.05789869,9.3746679 1.1985672,10.044287 c 0.2095106,0.119575 0.4190211,0.19132 0.6285317,0.263065 v 6.409211 c -0.2095106,0.04783 -0.4423001,0.14349 -0.6285317,0.263065 -1.14066851,0.669619 -1.53641065,2.128432 -0.88460006,3.276351 0.67508955,1.147918 2.14166336,1.554473 3.28233196,0.884854 0.2095105,-0.119575 0.3957421,-0.263065 0.5354158,-0.43047 L 9.695384,23.914969 C 9.625547,24.130204 9.602268,24.369353 9.602268,24.584588 9.6022682,25.923826 10.6731,27 12,27 c 1.3269,0 2.397732,-1.076174 2.397732,-2.415412 0,-0.263064 -0.04656,-0.526129 -0.116395,-0.765279 l 5.517111,-3.180691 c 0.162953,0.19132 0.372463,0.358725 0.581974,0.4783 1.140668,0.669619 2.630521,0.263064 3.282332,-0.884854 0.67509,-1.124004 0.279347,-2.582817 -0.861321,-3.252436 z M 4.7369676,18.486271 C 4.6904097,18.271036 4.5972939,18.055802 4.4808992,17.840567 4.3645044,17.649247 4.2248307,17.457927 4.0618781,17.314438 L 11.324911,4.7112489 C 11.534421,4.7829938 11.76721,4.8308237 12,4.8308237 c 0.23279,0 0.465579,-0.023915 0.67509,-0.09566 l 7.263032,12.6031883 c -0.162953,0.14349 -0.302626,0.33481 -0.419021,0.52613 -0.116395,0.215235 -0.209511,0.406554 -0.256069,0.645704 H 4.7369676 Z M 19.286311,7.2940655 c -0.162952,0.5978743 -0.116394,1.2674934 0.23279,1.8653676 0.349184,0.5978743 0.8846,0.9805139 1.489853,1.1240039 v 6.433126 c -0.02328,0 -0.06984,0.02391 -0.09312,0.02391 L 13.652805,4.1612046 c 0.02328,-0.023915 0.04656,-0.04783 0.06984,-0.071745 z M 10.277358,4.0894597 c 0.02328,0.023915 0.04656,0.04783 0.06984,0.071745 L 3.0608832,16.740478 c -0.023279,0 -0.069837,-0.02391 -0.093116,-0.02391 V 10.307352 C 3.5730201,10.163862 4.1317149,9.7573074 4.4576202,9.1833481 4.8068045,8.5854739 4.8533624,7.9158547 4.6904097,7.3179805 Z M 13.792479,22.982285 C 13.350179,22.503986 12.721647,22.193091 12,22.193091 c -0.675089,0 -1.280342,0.28698 -1.722642,0.741364 L 4.7136887,19.729849 c 0,-0.02391 0.023279,-0.04783 0.023279,-0.07174 H 19.263032 c 0.02328,0.04783 0.02328,0.09566 0.04656,0.167405 z"
           id="path92"
           style="fill:url(#linearGradient945)" />
      </g>
    </g>
    <g
       id="g102"
       transform="translate(297.000000, 23.000000)"
       fill="url(#linearGradient-7)"
       fill-rule="nonzero">
      <g
         id="g100">
        <path
           d="M22.8014328,16.979628 C22.5919222,16.8600531 22.3824117,16.7883082 22.1729011,16.7165633 L22.1729011,10.3073516 C22.3824117,10.2595217 22.6152012,10.1638618 22.8014328,10.044287 C23.9421013,9.37466785 24.3378435,7.91585474 23.6860329,6.76793623 C23.0109433,5.62001771 21.5443695,5.21346324 20.4037009,5.88308237 C20.1941904,6.00265722 20.0079588,6.14614703 19.8682851,6.31355182 L14.304616,3.10894597 C14.3744529,2.89371125 14.3977318,2.65456156 14.3977318,2.43932684 C14.3977318,1.10008857 13.3269001,0 12,0 C10.6730999,0 9.60226816,1.0761736 9.60226816,2.41541187 C9.60226816,2.65456156 9.62554711,2.86979628 9.69538396,3.10894597 L4.13171493,6.31355182 C3.96876228,6.14614703 3.80580963,6.00265722 3.59629908,5.88308237 C2.45563054,5.21346324 0.965777741,5.62001771 0.313967144,6.76793623 C-0.337843454,7.91585474 0.0578986945,9.37466785 1.19856724,10.044287 C1.40807779,10.1638618 1.61758834,10.2356067 1.82709889,10.3073516 L1.82709889,16.7165633 C1.61758834,16.7643933 1.38479884,16.8600531 1.19856724,16.979628 C0.0578986945,17.6492471 -0.337843454,19.1080602 0.313967144,20.2559787 C0.989056691,21.4038973 2.45563054,21.8104517 3.59629908,21.1408326 C3.80580963,21.0212578 3.99204123,20.8777679 4.13171493,20.7103632 L9.69538396,23.914969 C9.62554711,24.1302037 9.60226816,24.3693534 9.60226816,24.5845881 C9.60226816,25.9238264 10.6730999,27 12,27 C13.3269001,27 14.3977318,25.9238264 14.3977318,24.5845881 C14.3977318,24.3215235 14.3511739,24.0584588 14.2813371,23.8193091 L19.7984482,20.6386182 C19.9614009,20.829938 20.1709114,20.9973428 20.380422,21.1169176 C21.5210905,21.7865368 23.0109433,21.3799823 23.6627539,20.2320638 C24.3378435,19.1080602 23.9421013,17.6492471 22.8014328,16.979628 Z M4.73696763,18.486271 C4.69040973,18.2710363 4.59729393,18.0558016 4.48089918,17.8405669 C4.36450443,17.6492471 4.22483073,17.4579274 4.06187808,17.3144376 L11.3249105,4.71124889 C11.534421,4.7829938 11.7672105,4.83082374 12,4.83082374 C12.2327895,4.83082374 12.465579,4.80690877 12.6750895,4.73516386 L19.9381219,17.3383525 C19.7751693,17.4818423 19.6354956,17.6731621 19.5191008,17.8644818 C19.4027061,18.0797166 19.3095903,18.2710363 19.2630324,18.510186 L4.73696763,18.510186 L4.73696763,18.486271 Z M19.2863113,7.29406554 C19.1233587,7.89193977 19.1699166,8.5615589 19.5191008,9.15943313 C19.8682851,9.75730735 20.4037009,10.1399469 21.0089536,10.2834367 L21.0089536,16.7165633 C20.9856747,16.7165633 20.9391168,16.7404783 20.9158378,16.7404783 L13.6528054,4.16120461 C13.6760844,4.13728964 13.6993633,4.11337467 13.7226423,4.0894597 L19.2863113,7.29406554 Z M10.2773577,4.0894597 C10.3006367,4.11337467 10.3239156,4.13728964 10.3471946,4.16120461 L3.06088323,16.7404783 C3.03760428,16.7404783 2.99104638,16.7165633 2.96776743,16.7165633 L2.96776743,10.3073516 C3.57302013,10.1638618 4.13171493,9.75730735 4.45762023,9.1833481 C4.80680448,8.58547387 4.85336238,7.91585474 4.69040973,7.31798051 L10.2773577,4.0894597 Z M13.7924791,22.9822852 C13.3501791,22.5039858 12.7216474,22.1930912 12,22.1930912 C11.3249105,22.1930912 10.7196578,22.4800709 10.2773577,22.9344553 L4.71368868,19.7298494 C4.71368868,19.7059345 4.73696763,19.6820195 4.73696763,19.6581045 L19.2630324,19.6581045 C19.2863113,19.7059345 19.2863113,19.7537644 19.3095903,19.8255093 L13.7924791,22.9822852 Z"
           id="path98" />
      </g>
    </g>
    <path
       d="M5.49933712,128 L194.071388,128"
       id="Line-5-Copy"
       stroke="#747790"
       opacity="0.300000012"
       stroke-linecap="square" />
    <path
       d="M274.499337,128 L463.071388,128"
       id="Line-5-Copy-2"
       stroke="#747790"
       opacity="0.300000012"
       stroke-linecap="square" />
    <text
       id="Client"
       font-family="SourceSansPro-Regular, 'Source Sans Pro'"
       font-size="16px"
       font-weight="normal"
       line-spacing="24"
       fill="#747790"
       x="-6.8559394"
       y="11.180034"
       style="font-style:normal;font-variant:normal;font-weight:normal;font-stretch:normal;font-family:sans-serif;-inkscape-font-specification:sans-serif"><tspan
         x="417.56003"
         y="120.18003"
         id="tspan106"
         style="font-style:normal;font-variant:normal;font-weight:normal;font-stretch:normal;font-family:sans-serif;-inkscape-font-specification:sans-serif">Client</tspan></text>
    <text
       id="Client-5"
       font-family="SourceSansPro-Regular, 'Source Sans Pro'"
       font-size="16px"
       font-weight="normal"
       line-spacing="24"
       fill="#747790"
       x="-102.12363"
       y="-2.0492146"><tspan
         sodipodi:role="line"
         id="tspan6445"
         x="-102.12363"
         y="-2.0492146">G</tspan><tspan
         sodipodi:role="line"
         x="-102.12363"
         y="-2.0492146"
         id="tspan6459"><tspan
           x="322.29236"
           y="106.95078"
           id="tspan6461" /></tspan></text>
    <text
       id="Server"
       font-family="SourceSansPro-Regular, 'Source Sans Pro'"
       font-size="16px"
       font-weight="normal"
       line-spacing="24"
       fill="#747790"
       x="-10.52698"
       style="font-style:normal;font-variant:normal;font-weight:normal;font-stretch:normal;font-family:sans-serif;-inkscape-font-specification:sans-serif"
       y="-8.3182287"><tspan
         x="410.51703"
         y="145.68178"
         id="tspan109"
         style="font-style:normal;font-variant:normal;font-weight:normal;font-stretch:normal;font-family:sans-serif;-inkscape-font-specification:sans-serif">Server</tspan></text>
    <circle
       id="circle23-3"
       fill="#ffffff"
       cx="237.65186"
       cy="128.39212"
       r="42.270782"
       style="stroke:#747790;stroke-width:1.64392;stroke-miterlimit:4;stroke-dasharray:none;stroke-opacity:1" />
    <text
       id="Client-56"
       font-family="SourceSansPro-Regular, 'Source Sans Pro'"
       font-size="16px"
       font-weight="normal"
       line-spacing="24"
       fill="#747790"
       x="-151.89354"
       y="14.225876"
       style="text-align:center;text-anchor:middle;-inkscape-font-specification:sans-serif;font-family:sans-serif;font-weight:normal;font-style:normal;font-stretch:normal;font-variant:normal"><tspan
         sodipodi:role="line"
         id="tspan13066"
         x="237.72166"
         y="123.22588"><tspan
           x="237.72166"
           y="123.22588"
           id="tspan106-2"
           style="text-align:center;text-anchor:middle;-inkscape-font-specification:sans-serif;font-family:sans-serif;font-weight:normal;font-style:normal;font-stretch:normal;font-variant:normal">GraphQL</tspan></tspan><tspan
         sodipodi:role="line"
         id="tspan13068"
         x="237.72166"
         y="143.22588">Gateway</tspan></text>
  </g>
</svg>
